# AST/ASF file generated using VICON BodyLanguage
# -----------------------------------------------
:version 1.10
:name VICON
:units
  mass 1.0
  length 0.45
  angle deg
:documentation
   .ast/.asf automatically generated from VICON data using
   VICON BodyBuilder and BodyLanguage model FoxedUp or BRILLIANT.MOD
:root
   order TX TY TZ RX RY RZ
   axis XYZ
   position 0 0 0  
   orientation 0 0 0 
:bonedata
  begin
     id 1 
     name lhipjoint
     direction 0.671379 -0.66392 0.329334 
     length 2.38647 
     axis 0 0 0  XYZ
  end
  begin
     id 2 
     name lfemur
     direction 0.34202 -0.939693 0  
     length 6.48179  
     axis 0 0 20  XYZ
    dof rx ry rz
    limits (-160.0 20.0)
           (-70.0 70.0)
           (-60.0 70.0)
  end
  begin
     id 3 
     name ltibia
     direction 0.34202 -0.939693 0   
     length 6.86524   
     axis 0 0 20   XYZ
    dof rx
    limits (-10.0 170.0)
  end
  begin
     id 4 
     name lfoot
     direction 0.204886 -0.562919 0.800715   
     length 1.73031   
     axis -90 7.62852e-016 20   XYZ
    dof rx rz
    limits (-45.0 90.0)
           (-70.0 20.0)
  end
  begin
     id 5 
     name ltoes
     direction 1.53548e-011 -4.21841e-011 1   
     length 0.828161   
     axis -90 7.62852e-016 20   XYZ
    dof rx
    limits (-90.0 20.0)
  end
  begin
     id 6 
     name rhipjoint
     direction -0.662732 -0.670855 0.332775   
     length 2.3618  
     axis 0 0 0  XYZ 
  end
  begin
     id 7 
     name rfemur
     direction -0.34202 -0.939693 0   
     length 6.3025   
     axis 0 0 -20   XYZ
    dof rx ry rz
    limits (-160.0 20.0)
           (-70.0 70.0)
           (-70.0 60.0)
  end
  begin
     id 8 
     name rtibia
     direction -0.34202 -0.939693 0   
     length 6.8732   
     axis 0 0 -20   XYZ
    dof rx
    limits (-10.0 170.0)
 end
 begin
     id 9 
     name rfoot
     direction -0.173856 -0.477665 0.861168   
     length 1.54784  
     axis -90 -7.62852e-016 -20   XYZ
    dof rx rz
    limits (-45.0 90.0)
           (-20.0 70.0)
  end
  begin
     id 10 
     name rtoes
     direction -1.53562e-011 -4.21802e-011 1   
     length 0.759618   
     axis -90 -7.62852e-016 -20   XYZ
    dof rx
    limits (-90.0 20.0)
  end
  begin
     id 11 
     name lowerback
     direction -0.0278357 0.999497 -0.0151789   
     length 1.97203   
     axis 0 0 0   XYZ
    dof rx ry rz
    limits (-20.0 45.0)
           (-30.0 30.0)
           (-30.0 30.0)
  end
  begin
     id 12 
     name upperback
     direction -0.00360622 0.997542 0.0699804   
     length 1.94709   
     axis 0 0 0   XYZ
    dof rx ry rz
    limits (-20.0 45.0)
           (-30.0 30.0)
           (-30.0 30.0)
  end
  begin
     id 13 
     name thorax
     direction 0.00907706 0.997048 0.0762461   
     length 1.95722   
     axis 0 0 0   XYZ
    dof rx ry rz
    limits (-20.0 45.0)
           (-30.0 30.0)
           (-30.0 30.0)
  end
  begin
     id 14 
     name lowerneck
     direction -0.0481835 0.99872 -0.0153927   
     length 1.63078   
     axis 0 0 0   XYZ
    dof rx ry rz
    limits (-20.0 45.0)
           (-30.0 30.0)
           (-30.0 30.0)
  end
  begin
     id 15 
     name upperneck
     direction 0.0859716 0.979226 -0.183644   
     length 1.62591   
     axis 0 0 0   XYZ
    dof rx ry rz
    limits (-20.0 45.0)
           (-30.0 30.0)
           (-30.0 30.0)
  end
  begin
     id 16
     name head
     direction 0.0324821 0.997629 -0.0606773  
     length 1.64811  
     axis 0 0 0   XYZ
    dof rx ry rz
    limits (-20.0 45.0)
           (-30.0 30.0)
           (-30.0 30.0)
  end
  begin
     id 17 
     name lclavicle
     direction 0.939609 0.311019 0.142835  
     length 3.70647  
     axis 0 0 0   XYZ
    dof ry rz
    limits (-20.0 10.0)
           (0.0 20.0)
  end
  begin
     id 18 
     name lhumerus
     direction 1 -4.48963e-011 -1.59838e-027   
     length 4.59207   
     axis 180 -30 -90   XYZ
    dof rx ry rz
    limits (-60.0 90.0)
           (-90.0 90.0)
           (-90.0 90.0)
  end
  begin
     id 19
     name lradius
     direction 1 -4.48957e-011 -1.3483e-026   
     length 2.98109   
     axis 180 -30 -90   XYZ
    dof rx
    limits (-10.0 170.0)
  end
  begin
     id 20
     name lwrist
     direction 1 -4.48954e-011 -3.11579e-026   
     length 1.49055   
     axis 2.00652e-014 90 90   XYZ
    dof ry
    limits (-180.0 0.0)
 end
  begin
     id 21 
     name lhand
     direction 1 -4.4911e-011 -6.23158e-026   
     length 0.480203   
     axis 3.97628e-014 90 90   XYZ
    dof rx rz
    limits (-90.0 90.0)
           (-45.0 45.0)
  end
  begin
     id 22 
     name lfingers
     direction 1 -4.48893e-011 -1.24632e-025   
     length 0.387152   
     axis 7.95256e-014 90 90   XYZ
    dof rx
    limits (0.0 90.0)
  end
  begin
     id 23
     name lthumb
     direction 0.707107 -6.35013e-011 0.707107   
     length 0.555875   
     axis -90 45 2.85299e-015   XYZ
    dof rx rz
    limits (-45.0 45.0)
           (-45.0 45.0)
  end
  begin
     id 24 
     name rclavicle
     direction -0.950396 0.30392 0.0661859   
     length 3.70894  
     axis 0 0 0   XYZ 
    dof ry rz
    limits (-10.0 20.0)
           (-20.0 0.0)
  end
  begin
     id 25 
     name rhumerus
     direction -1 -4.48957e-011 -2.96677e-027  
     length 4.76508   
     axis 180 30 90   XYZ
    dof rx ry rz
    limits (-90.0 60.0)
           (-90.0 90.0)
           (-90.0 90.0)
  end
  begin
     id 26 
     name rradius
     direction -1 -4.48974e-011 -1.44501e-026   
     length 2.78902   
     axis 180 30 90   XYZ
    dof rx
    limits (-10.0 170.0)
  end
  begin
     id 27 
     name rwrist
     direction -1 -4.48978e-011 -3.11579e-026   
     length 1.39451   
     axis 2.00652e-014 -90 -90   XYZ
    dof ry
    limits (-180.0 0.0)
  end
  begin
     id 28
     name rhand
     direction -1 -4.48956e-011 -6.23158e-026   
     length 0.721303   
     axis 3.97628e-014 -90 -90   XYZ
    dof rx rz
    limits (-90.0 90.0)
           (-45.0 45.0)
  end
  begin
     id 29
     name rfingers
     direction -1 -4.4899e-011 -1.24632e-025   
     length 0.581533   
     axis 7.95256e-014 -90 -90   XYZ
    dof rx
    limits (0.0 90.0)
  end
  begin
     id 30
     name rthumb
     direction -0.707107 -6.34911e-011 0.707107   
     length 0.834968   
     axis -90 -45 -2.85299e-015   XYZ
    dof rx rz
    limits (-45.0 45.0)
           (-45.0 45.0)
  end
:hierarchy
  begin
    root lhipjoint rhipjoint lowerback
    lhipjoint lfemur
    lfemur ltibia
    ltibia lfoot
    lfoot ltoes
    rhipjoint rfemur
    rfemur rtibia
    rtibia rfoot
    rfoot rtoes
    lowerback upperback
    upperback thorax
    thorax lowerneck lclavicle rclavicle
    lowerneck upperneck
    upperneck head
    lclavicle lhumerus
    lhumerus lradius
    lradius lwrist
    lwrist lhand lthumb
    lhand lfingers
    rclavicle rhumerus
    rhumerus rradius
    rradius rwrist
    rwrist rhand rthumb
    rhand rfingers
  end

#!OML:ASF I:\salsa\salsa 7_09\Patient 1\Session 1\dancerfemale.ASF
:FULLY-SPECIFIED
:DEGREES
1204
root 11.3131 15.7458 -2.02928 -556.79 -62.8081 219.271
lowerback 0.206297 5.98664 23.9011
upperback -11.7727 8.90609 -1.07972
thorax -9.2339 1.91587 -14.4508
lowerneck 0.241939 -3.71025 -9.36238
upperneck 17.2923 -6.61684 9.14656
head 5.74631 -3.5008 4.0974
rclavicle -6.31141e-015 -2.22639e-014
rhumerus -68.6856 13.9351 -102.488
rradius 106.818
rwrist -51.3217
rhand 26.2467 386.972
rfingers 7.12502
rthumb 50.3032 5.91013
lclavicle -6.31141e-015 -2.22639e-014
lhumerus -26.688 36.0759 54.9786
lradius 122.08
lwrist -27.5201
lhand -24.1663 54.0391
lfingers 7.12502
lthumb 2.31674 84.0063
rfemur -3.57984 -13.2476 43.8488
rtibia 8.62226
rfoot -13.2399 -6.78317
rtoes -21.8121
lfemur -64.7115 16.6867 -7.17074
ltibia 50.5724
lfoot -11.904 13.1236
ltoes 5.25873
1205
root 11.2109 15.6815 -2.02671 -558.145 -62.9014 220.456
lowerback 0.301931 6.14693 24.1587
upperback -11.8103 9.17094 -0.837541
thorax -9.23854 2.02548 -14.2973
lowerneck 0.164738 -3.5601 -8.98397
upperneck 17.3359 -6.34186 8.69555
head 5.72278 -3.36446 3.90406
rclavicle -4.45278e-014 -3.26007e-014
rhumerus -68.6082 13.5635 -101.979
rradius 107.215
rwrist -51.3703
rhand 26.299 386.736
rfingers 7.12502
rthumb 50.3511 5.69956
lclavicle -4.45278e-014 -3.26007e-014
lhumerus -26.9262 35.9321 54.8972
lradius 122.096
lwrist -28.0228
lhand -23.6345 53.7704
lfingers 7.12502
lthumb 2.83034 83.7314
rfemur -4.70578 -13.1783 44.0937
rtibia 11.8492
rfoot -14.7116 -7.74929
rtoes -21.8228
lfemur -64.9884 17.6275 -7.58481
ltibia 53.2928
lfoot -14.6408 11.3621
ltoes 1.26296
1206
root 11.1075 15.6159 -2.01984 -559.845 -63.0142 221.805
lowerback 0.637483 6.24486 24.502
upperback -11.8294 9.4354 -0.608847
thorax -9.35026 2.11471 -14.2376
lowerneck -0.109994 -3.42547 -8.33185
upperneck 17.5951 -6.06504 7.9869
head 5.78841 -3.2224 3.5789
rclavicle 6.60959e-014 1.90833e-014
rhumerus -68.3122 13.0584 -101.419
rradius 107.461
rwrist -51.4166
rhand 26.4721 386.4
rfingers 7.12502
rthumb 50.5092 5.44859
lclavicle 6.60959e-014 1.90833e-014
lhumerus -27.3448 35.7796 54.7029
lradius 122.369
lwrist -29.1843
lhand -21.8894 52.6407
lfingers 7.12502
lthumb 4.51555 82.5725
rfemur -5.16137 -14.0267 44.4605
rtibia 14.1267
rfoot -15.4538 -8.27459
rtoes -21.9354
lfemur -64.9931 18.6116 -7.97625
ltibia 56.175
lfoot -17.1682 9.8302
ltoes -1.86913
1207
root 10.9945 15.5591 -2.0131 -561.46 -63.2101 223.004
lowerback 0.965869 6.41358 24.9269
upperback -11.8391 9.79609 -0.602944
thorax -9.35476 2.2557 -14.4615
lowerneck -0.413656 -3.38712 -7.29312
upperneck 17.8016 -5.89912 7.06
head 5.83874 -3.1219 3.11252
rclavicle -2.00773e-014 3.73715e-014
rhumerus -68.0972 12.2154 -100.884
rradius 107.722
rwrist -51.3009
rhand 26.7839 386.122
rfingers 7.12502
rthumb 50.7937 5.32582
lclavicle -2.00773e-014 3.73715e-014
lhumerus -26.8986 34.9158 54.8272
lradius 122.417
lwrist -29.5597
lhand -22.0499 52.8208
lfingers 7.12502
lthumb 4.36062 82.7559
rfemur -5.2667 -14.2877 44.6822
rtibia 15.8574
rfoot -15.7914 -9.49431
rtoes -21.047
lfemur -64.7254 19.6097 -8.52811
ltibia 58.968
lfoot -19.4784 8.50479
ltoes -3.51993
1208
root 10.8651 15.5221 -2.01062 -562.782 -63.4521 223.899
lowerback 1.1192 6.47747 24.7595
upperback -11.8256 9.93069 -0.260196
thorax -9.45814 2.33409 -14.0075
lowerneck -0.41619 -3.15537 -6.56057
upperneck 17.7004 -5.42895 6.03333
head 5.72947 -2.9038 2.69168
rclavicle 1.25234e-014 2.14687e-014
rhumerus -68.3545 12.1725 -100.219
rradius 108.082
rwrist -51.175
rhand 26.8974 386.079
rfingers 7.12502
rthumb 50.8972 5.34088
lclavicle 1.25234e-014 2.14687e-014
lhumerus -27.2415 34.7421 54.8062
lradius 122.933
lwrist -30.5651
lhand -20.4863 52.424
lfingers 7.12502
lthumb 5.87036 82.3227
rfemur -5.56181 -13.8973 44.6867
rtibia 18.1273
rfoot -16.5331 -10.9758
rtoes -19.308
lfemur -63.7764 20.3887 -9.0393
ltibia 60.6977
lfoot -20.7743 7.57195
ltoes -5.51733
1209
root 10.7065 15.504 -2.01566 -564.205 -64.5454 225.109
lowerback 0.495388 6.56425 24.5963
upperback -11.8084 9.83722 -0.297167
thorax -9.13025 2.35374 -13.8724
lowerneck -0.132034 -3.00098 -6.18493
upperneck 17.2369 -5.1803 5.86518
head 5.50592 -2.76658 2.59625
rclavicle -5.89894e-014 -1.06946e-013
rhumerus -68.4611 11.6599 -99.5867
rradius 108.314
rwrist -50.902
rhand 27.3782 385.894
rfingers 7.12502
rthumb 51.3351 5.4018
lclavicle -5.89894e-014 -1.06946e-013
lhumerus -26.9721 34.047 55.1058
lradius 123.426
lwrist -31.5599
lhand -18.7028 52.4194
lfingers 7.12502
lthumb 7.59202 82.2632
rfemur -6.34425 -13.5955 44.5039
rtibia 20.7405
rfoot -17.8716 -12.7096
rtoes -17.011
lfemur -62.5042 20.0689 -9.71881
ltibia 61.319
lfoot -20.8059 6.2679
ltoes -7.78482
1210
root 10.5337 15.6897 -2.07505 -547.836 -65.7267 202.554
lowerback 4.44691 6.3886 14.6481
upperback -10.2136 9.75067 -1.87903
thorax -11.0885 3.11669 -11.3037
lowerneck 0.0393574 -2.88373 -6.00481
upperneck 16.9332 -5.02734 5.99848
head 5.3702 -2.67065 2.62044
rclavicle 6.51517e-014 5.56597e-015
rhumerus -68.5955 11.0035 -98.8815
rradius 108.412
rwrist -50.5627
rhand 27.9255 385.748
rfingers 7.12502
rthumb 51.8326 5.5438
lclavicle 6.51517e-014 5.56597e-015
lhumerus -26.0371 33.272 55.9016
lradius 123.558
lwrist -32.6452
lhand -17.5314 52.6945
lfingers 7.12502
lthumb 8.72255 82.4943
rfemur -1.90682 -10.4428 33.498
rtibia 22.9698
rfoot -19.6547 -15.3413
rtoes -12.2079
lfemur -52.5305 20.5725 -18.0835
ltibia 59.5584
lfoot -22.5627 4.50728
ltoes -8.29686
